<svg width="960" height="320" viewBox="0 0 960 320" fill="none" xmlns="http://www.w3.org/2000/svg">
  <rect width="960" height="320" rx="32" fill="#F6F9FF"/>
  <rect x="12" y="12" width="936" height="296" rx="24" stroke="#D7E5FF" stroke-width="2"/>

  <g transform="translate(44 32)">
    <rect x="0" y="0" width="256" height="256" rx="40" fill="#0F172A"/>
    <g transform="translate(20 20)">
      <defs>
        <linearGradient id="logoBlade" x1="24" y1="12" x2="192" y2="204" gradientUnits="userSpaceOnUse">
          <stop stop-color="#BCE6FF"/>
          <stop offset="0.5" stop-color="#5EA8FF"/>
          <stop offset="1" stop-color="#2448D8"/>
        </linearGradient>
        <linearGradient id="logoNode" x1="68" y1="88" x2="96" y2="150" gradientUnits="userSpaceOnUse">
          <stop stop-color="#FFD7A1"/>
          <stop offset="1" stop-color="#FF8A3D"/>
        </linearGradient>
      </defs>
      <path d="M38 167C38 117.847 77.8467 78 127 78H150C154.418 78 158 81.5817 158 86V106C158 110.418 154.418 114 150 114H125C97.3858 114 75 136.386 75 164V170C75 174.418 71.4183 178 67 178H46C41.5817 178 38 174.418 38 170V167Z" fill="#132445"/>
      <path d="M35 108C63 77 101 51 176 26C171 52 158 72 138 88C114 106 88 117 54 121L35 108Z" fill="url(#logoBlade)"/>
      <path d="M29 130C63 111 109 104 194 108C180 127 156 141 126 150C91 160 61 156 38 141L29 130Z" fill="url(#logoBlade)"/>
      <path d="M38 151C70 161 114 176 176 192C156 206 127 209 96 200C70 192 49 178 38 161V151Z" fill="url(#logoBlade)"/>
      <circle cx="167" cy="40" r="11" fill="#EFF8FF"/>
      <circle cx="186" cy="110" r="11" fill="#EFF8FF"/>
      <circle cx="167" cy="185" r="11" fill="#EFF8FF"/>
      <circle cx="167" cy="40" r="6.5" fill="#1F4FD6"/>
      <circle cx="186" cy="110" r="6.5" fill="#1F4FD6"/>
      <circle cx="167" cy="185" r="6.5" fill="#1F4FD6"/>
      <path d="M68 102L86 92L104 102V123L86 133L68 123V102Z" fill="#EEF6FF"/>
      <path d="M86 92L104 102L86 112L68 102L86 92Z" fill="#D4E8FF"/>
      <path d="M86 112L104 102V123L86 133V112Z" fill="#84BCFF"/>
      <path d="M68 102L86 112V133L68 123V102Z" fill="#3466F6"/>
      <circle cx="86" cy="112" r="18" fill="url(#logoNode)" fill-opacity="0.2"/>
      <circle cx="86" cy="112" r="6" fill="#FF9B52"/>
      <path d="M76 76C92 58 120 44 154 42" stroke="#D9EEFF" stroke-width="5.5" stroke-linecap="round" stroke-opacity="0.72"/>
      <path d="M82 112H158" stroke="#D9EEFF" stroke-width="5.5" stroke-linecap="round" stroke-opacity="0.72"/>
      <path d="M76 147C95 160 122 172 154 178" stroke="#D9EEFF" stroke-width="5.5" stroke-linecap="round" stroke-opacity="0.72"/>
    </g>
  </g>

  <g transform="translate(344 82)">
    <text x="0" y="88" font-family="Arial" font-size="82" font-weight="800" letter-spacing="-1.8" fill="#0F172A">Team<tspan fill="#2350E6">Claw</tspan></text>
    <text x="2" y="134" font-family="Arial" font-size="24" font-weight="600" letter-spacing="2.2" fill="#3D63F2">OASIS MULTI-AGENT WORKSPACE</text>
    <text x="2" y="184" font-family="Arial" font-size="24" font-weight="500" fill="#475569">Claw-shaped coordination for teams, workflows,</text>
    <text x="2" y="214" font-family="Arial" font-size="24" font-weight="500" fill="#475569">sessions, and live discussion.</text>
    <path d="M2 242H458" stroke="url(#underline)" stroke-width="6" stroke-linecap="round"/>
  </g>

  <defs>
    <linearGradient id="underline" x1="2" y1="242" x2="460" y2="242" gradientUnits="userSpaceOnUse">
      <stop stop-color="#4F46E5"/>
      <stop offset="0.48" stop-color="#3B82F6"/>
      <stop offset="1" stop-color="#FF9B52"/>
    </linearGradient>
  </defs>
</svg>
